Coordinates
version=1
nRows=19
nColumns=24
inDegrees=yes

Units are S.I. units (second, meters, Newtons, ...)
If the header above contains a line with 'inDegrees', this indicates whether rotational values are in degrees (yes) or radians (no).

endheader
time	pelvis_tilt	pelvis_list	pelvis_rotation	pelvis_tx	pelvis_ty	pelvis_tz	lumbar_extension	lumbar_bending	lumbar_rotation	arm_flex_r	arm_add_r	arm_rot_r	elbow_flex_r	pro_sup_r	wrist_flex_r	wrist_dev_r	arm_flex_l	arm_add_l	arm_rot_l	elbow_flex_l	pro_sup_l	wrist_flex_l	wrist_dev_l
     61.44000000	    -16.52387519	     -3.26211999	     -9.73855675	      1.20844285	      0.87398998	      0.17204435	     -5.05083500	      7.66175441	      3.30627402	      5.11220266	    -20.96423271	     21.85807265	     44.84818337	     66.33974034	    -24.37759659	    -21.22222000	     11.47843453	    -20.43694603	     33.48590182	     97.15247630	     73.11095458	    -16.99661430	    -16.26784614
     61.44400000	    -16.29857582	     -3.31836285	     -9.91119727	      1.21214337	      0.87298145	      0.17303270	     -4.80627718	      7.65643623	      3.19756228	      4.96011715	    -20.96987430	     22.70752072	     44.49020564	     65.34435476	    -24.02216222	    -21.91211642	     10.40560397	    -20.47910375	     31.39255946	     99.43765888	     60.84103613	    -11.30549338	    -10.75474854
     61.44800000	    -16.27501335	     -3.31390255	     -9.91115074	      1.21217664	      0.87298032	      0.17290184	     -4.78365626	      7.66541885	      3.20214014	      4.95416004	    -20.98752024	     22.70500188	     44.46149839	     65.34733675	    -24.02124907	    -21.91126788	     10.45454005	    -20.43842414	     31.40270547	     99.54342315	     60.84574277	    -11.29636190	    -10.76628442
     61.45200000	    -16.25839841	     -3.30127372	     -9.91622437	      1.21250302	      0.87297949	      0.17287070	     -4.76776920	      7.68137408	      3.20099526	      4.95705346	    -20.98016021	     22.70719147	     44.46125581	     65.34857632	    -24.02048585	    -21.91152690	     10.47929282	    -20.42670300	     31.40543057	     99.57715035	     60.84731989	    -11.29333783	    -10.76974995
     61.45600000	    -16.25968942	     -3.29433522	     -9.88671227	      1.21255953	      0.87296333	      0.17261526	     -4.76840660	      7.68689776	      3.23220928	      4.94756295	    -21.02291880	     22.70868651	     44.42440006	     65.35457449	    -24.01788897	    -21.91153949	     10.53142250	    -20.38251778	     31.46775477	     99.82419618	     60.85740541	    -11.26991564	    -10.79425875
     61.46000000	    -16.26184412	     -3.28629585	     -9.88477967	      1.21254731	      0.87295209	      0.17248562	     -4.77198285	      7.69480207	      3.23503004	      4.96756795	    -21.04619106	     22.70866353	     44.44287491	     65.36805992	    -24.01394416	    -21.91944714	     10.56688795	    -20.40961434	     31.53192813	    100.03700475	     60.86161836	    -11.25171887	    -10.81480586
     61.46400000	    -16.24575312	     -3.27681956	     -9.88652618	      1.21267249	      0.87307608	      0.17246361	     -4.75655261	      7.70710555	      3.23653575	      4.97195952	    -21.03790437	     22.71047949	     44.44783224	     65.36931127	    -24.01332356	    -21.92013352	     10.58278989	    -20.40714631	     31.53077487	    100.05712675	     60.86223198	    -11.25055808	    -10.81718130
     61.46800000	    -16.40658017	     -3.25037971	     -9.83899816	      1.20978467	      0.87382860	      0.17236926	     -4.94607800	      7.68161038	      3.25422082	      5.45114104	    -20.98058708	     22.78422514	     44.28187289	     65.63900434	    -23.85535399	    -21.81417151	     11.50973394	    -20.64198395	     33.88533571	     98.55977193	     73.80692839	    -20.51071940	    -15.82138597
     61.47200000	    -16.38163831	     -3.30207046	     -9.84916326	      1.21038866	      0.87336779	      0.17323892	     -4.92536143	      7.62117750	      3.24756765	      5.30775662	    -20.82111998	     22.56652892	     44.38835154	     65.64669560	    -24.02103565	    -21.93649001	     10.91951076	    -20.64892946	     31.48494035	    100.78061793	     62.80413132	    -11.71006784	     -8.93541938
     61.47600000	    -16.36818834	     -3.28041525	     -9.83798036	      1.21057844	      0.87340097	      0.17288469	     -4.91403397	      7.64543493	      3.26439834	      5.28818561	    -20.88313036	     22.57430355	     44.36089893	     65.64855061	    -24.01782472	    -21.93371602	     10.95459282	    -20.63017885	     31.50835750	    100.90492544	     62.78471391	    -11.71915272	     -8.97047088
     61.48000000	    -16.35868612	     -3.26508405	     -9.83130047	      1.21072055	      0.87338606	      0.17265401	     -4.90620326	      7.66263538	      3.27498021	      5.28584522	    -20.92424126	     22.60429911	     44.39029137	     65.66370521	    -24.01711171	    -21.93249405	     10.97577950	    -20.62245289	     31.57033099	    101.07868936	     62.74578505	    -11.73681918	     -9.02594476
     61.48400000	    -16.34077823	     -3.25338889	     -9.82979489	      1.21089549	      0.87348693	      0.17261353	     -4.88897072	      7.67728349	      3.28033976	      5.29324022	    -20.90738643	     22.61051121	     44.40004506	     65.66591668	    -24.01721763	    -21.93232697	     10.98807220	    -20.61071800	     31.57385002	    101.09793916	     62.74420834	    -11.73690080	     -9.02988390
     61.48800000	    -16.33813489	     -3.25109435	     -9.80624250	      1.21101593	      0.87345319	      0.17242809	     -4.88493289	      7.67905900	      3.30562137	      5.27162108	    -20.94199463	     22.63814565	     44.39886908	     65.68076289	    -24.02840725	    -21.92289700	     11.02823474	    -20.56610608	     31.63344495	    101.31628346	     62.72822664	    -11.73539033	     -9.07287935
     61.49200000	    -16.34192694	     -3.25722989	     -9.81280268	      1.21095962	      0.87333023	      0.17271150	     -4.88871035	      7.67174113	      3.29637202	      5.26336444	    -20.96197563	     22.72205519	     44.56621172	     65.75455982	    -24.09637901	    -21.89293522	     11.07257722	    -20.74063564	     31.74881943	    101.59659081	     62.59765235	    -11.81104001	     -9.20578004
     61.49600000	    -16.32897074	     -3.24906186	     -9.79789159	      1.21113774	      0.87338486	      0.17251459	     -4.87525970	      7.68173382	      3.31507648	      5.25370710	    -20.97768701	     22.71518196	     44.52228772	     65.75520843	    -24.11133686	    -21.87964531	     11.10235087	    -20.68689773	     31.77593334	    101.70253334	     62.57940014	    -11.81798020	     -9.23125848
     61.50000000	    -16.30953884	     -3.23562952	     -9.80118357	      1.21124587	      0.87352369	      0.17242246	     -4.85734487	      7.69885475	      3.31617536	      5.25611469	    -20.97534347	     22.71477169	     44.52036713	     65.75584263	    -24.11332387	    -21.87811249	     11.11990781	    -20.68043146	     31.77867270	    101.72920001	     62.57726669	    -11.81803198	     -9.23622140
     61.50400000	    -16.30595752	     -3.22406534	     -9.77731721	      1.21146179	      0.87345183	      0.17211070	     -4.85359485	      7.71046990	      3.34337642	      5.23970321	    -21.03122481	     22.70699068	     44.47442310	     65.75803994	    -24.12896039	    -21.86459274	     11.15792313	    -20.63918312	     31.84740907	    101.93937763	     62.56232022	    -11.81270284	     -9.27131958
     61.50800000	    -16.29039077	     -3.21206334	     -9.78079523	      1.21160981	      0.87357250	      0.17207305	     -4.83906701	      7.72534861	      3.34338648	      5.24268160	    -21.02607313	     22.70823086	     44.47791287	     65.75907828	    -24.13004055	    -21.86397794	     11.17278227	    -20.63736961	     31.85072744	    101.95985283	     62.56086700	    -11.81227542	     -9.27479643
     61.51200000	    -16.28611727	     -3.20374415	     -9.75799829	      1.21176460	      0.87349576	      0.17178448	     -4.83452557	      7.73385025	      3.36917684	      5.22121400	    -21.08100056	     22.71072920	     44.45658983	     65.76582992	    -24.14506495	    -21.85172125	     11.22217241	    -20.62275912	     31.94924685	    102.21436537	     62.54350985	    -11.80347056	     -9.31198587
